solid button ok ir
facet normal 0.0 0.0 -1.0
  outer loop
    vertex 972.296984418698 1489.0333364548399 0.0
    vertex 965.8456361953474 1488.0333364548403 0.0
    vertex 965.8456361953474 1489.03333645484 0.0
  endloop
endfacet
facet normal 0.0 0.0 -1.0
  outer loop
    vertex 965.8456361953474 1488.0333364548403 0.0
    vertex 972.296984418698 1489.0333364548399 0.0
    vertex 966.8456361953474 1488.0333364548403 0.0
  endloop
endfacet
facet normal 0.0 0.0 -1.0
  outer loop
    vertex 965.8456361953474 1488.0333364548403 0.0
    vertex 966.8456361953474 1488.0333364548403 0.0
    vertex 965.8456361953474 1481.1781846593892 0.0
  endloop
endfacet
facet normal 0.0 0.0 -1.0
  outer loop
    vertex 966.8456361953474 1488.0333364548403 0.0
    vertex 972.296984418698 1489.0333364548399 0.0
    vertex 972.296984418698 1488.0333364548399 0.0
  endloop
endfacet
facet normal 0.0 0.0 -1.0
  outer loop
    vertex 972.296984418698 1488.0333364548399 0.0
    vertex 972.296984418698 1489.0333364548399 0.0
    vertex 973.296984418698 1489.0333364548399 0.0
  endloop
endfacet
facet normal 0.0 0.0 -1.0
  outer loop
    vertex 966.8456361953474 1488.0333364548403 0.0
    vertex 966.8456361953474 1481.1781846593892 0.0
    vertex 965.8456361953474 1481.1781846593892 0.0
  endloop
endfacet
facet normal 0.0 0.0 -1.0
  outer loop
    vertex 966.8456361953474 1481.1781846593892 0.0
    vertex 966.8456361953474 1488.0333364548403 0.0
    vertex 966.8456361953474 1482.1781846593892 0.0
  endloop
endfacet
facet normal 0.0 0.0 -1.0
  outer loop
    vertex 966.8456361953474 1481.1781846593892 0.0
    vertex 966.8456361953474 1482.1781846593892 0.0
    vertex 972.2969844186973 1482.1781846593892 0.0
  endloop
endfacet
facet normal 0.0 0.0 -1.0
  outer loop
    vertex 966.8456361953474 1481.1781846593892 0.0
    vertex 972.2969844186973 1482.1781846593892 0.0
    vertex 973.296984418698 1481.1781846593892 0.0
  endloop
endfacet
facet normal 0.0 0.0 -1.0
  outer loop
    vertex 973.296984418698 1481.1781846593892 0.0
    vertex 972.2969844186973 1482.1781846593892 0.0
    vertex 972.296984418698 1488.0333364548399 0.0
  endloop
endfacet
facet normal 0.0 0.0 -1.0
  outer loop
    vertex 973.296984418698 1481.1781846593892 0.0
    vertex 972.296984418698 1488.0333364548399 0.0
    vertex 973.296984418698 1489.0333364548399 0.0
  endloop
endfacet
facet normal 0.0 0.0 -1.0
  outer loop
    vertex 973.296984418698 1481.1781846593892 0.0
    vertex 973.296984418698 1489.0333364548399 0.0
    vertex 973.296984418698 1482.1781846593892 0.0
  endloop
endfacet
facet normal -0.0 -0.0 1.0
  outer loop
    vertex 973.296984418698 1481.1781846593892 0.9999999999999999
    vertex 966.8456361953474 1482.1781846593892 0.9999999999999999
    vertex 966.8456361953474 1481.1781846593892 0.9999999999999999
  endloop
endfacet
facet normal -0.0 -0.0 1.0
  outer loop
    vertex 966.8456361953474 1482.1781846593892 0.9999999999999999
    vertex 973.296984418698 1481.1781846593892 0.9999999999999999
    vertex 972.2969844186973 1482.1781846593892 0.9999999999999999
  endloop
endfacet
facet normal -0.0 -0.0 1.0
  outer loop
    vertex 972.2969844186973 1482.1781846593892 0.9999999999999999
    vertex 973.296984418698 1481.1781846593892 0.9999999999999999
    vertex 972.296984418698 1488.0333364548399 0.9999999999999999
  endloop
endfacet
facet normal -0.0 -0.0 1.0
  outer loop
    vertex 972.296984418698 1488.0333364548399 0.9999999999999999
    vertex 973.296984418698 1481.1781846593892 0.9999999999999999
    vertex 972.296984418698 1489.0333364548399 0.9999999999999999
  endloop
endfacet
facet normal -0.0 -0.0 1.0
  outer loop
    vertex 972.296984418698 1489.0333364548399 0.9999999999999999
    vertex 973.296984418698 1481.1781846593892 0.9999999999999999
    vertex 973.296984418698 1489.0333364548399 0.9999999999999999
  endloop
endfacet
facet normal -0.0 -0.0 1.0
  outer loop
    vertex 973.296984418698 1489.0333364548399 0.9999999999999999
    vertex 973.296984418698 1481.1781846593892 0.9999999999999999
    vertex 973.296984418698 1482.1781846593892 0.9999999999999999
  endloop
endfacet
facet normal -0.0 -0.0 1.0
  outer loop
    vertex 966.8456361953474 1481.1781846593892 0.9999999999999999
    vertex 965.8456361953474 1488.0333364548403 0.9999999999999999
    vertex 965.8456361953474 1481.1781846593892 0.9999999999999999
  endloop
endfacet
facet normal -0.0 -0.0 1.0
  outer loop
    vertex 965.8456361953474 1488.0333364548403 0.9999999999999999
    vertex 966.8456361953474 1481.1781846593892 0.9999999999999999
    vertex 965.8456361953474 1489.03333645484 0.9999999999999999
  endloop
endfacet
facet normal -0.0 -0.0 1.0
  outer loop
    vertex 965.8456361953474 1489.03333645484 0.9999999999999999
    vertex 966.8456361953474 1481.1781846593892 0.9999999999999999
    vertex 966.8456361953474 1488.0333364548403 0.9999999999999999
  endloop
endfacet
facet normal -0.0 -0.0 1.0
  outer loop
    vertex 965.8456361953474 1489.03333645484 0.9999999999999999
    vertex 966.8456361953474 1488.0333364548403 0.9999999999999999
    vertex 972.296984418698 1489.0333364548399 0.9999999999999999
  endloop
endfacet
facet normal -0.0 -0.0 1.0
  outer loop
    vertex 966.8456361953474 1488.0333364548403 0.9999999999999999
    vertex 966.8456361953474 1481.1781846593892 0.9999999999999999
    vertex 966.8456361953474 1482.1781846593892 0.9999999999999999
  endloop
endfacet
facet normal -0.0 -0.0 1.0
  outer loop
    vertex 972.296984418698 1489.0333364548399 0.9999999999999999
    vertex 966.8456361953474 1488.0333364548403 0.9999999999999999
    vertex 972.296984418698 1488.0333364548399 0.9999999999999999
  endloop
endfacet
facet normal -1.0 0.0 0.0
  outer loop
    vertex 965.8456361953474 1488.0333364548403 0.9999999999999999
    vertex 965.8456361953474 1481.1781846593892 0.0
    vertex 965.8456361953474 1481.1781846593892 0.9999999999999999
  endloop
endfacet
facet normal -1.0 0.0 0.0
  outer loop
    vertex 965.8456361953474 1481.1781846593892 0.0
    vertex 965.8456361953474 1488.0333364548403 0.9999999999999999
    vertex 965.8456361953474 1488.0333364548403 0.0
  endloop
endfacet
facet normal -1.0 0.0 0.0
  outer loop
    vertex 965.8456361953474 1489.03333645484 0.9999999999999999
    vertex 965.8456361953474 1488.0333364548403 0.0
    vertex 965.8456361953474 1488.0333364548403 0.9999999999999999
  endloop
endfacet
facet normal -1.0 0.0 0.0
  outer loop
    vertex 965.8456361953474 1488.0333364548403 0.0
    vertex 965.8456361953474 1489.03333645484 0.9999999999999999
    vertex 965.8456361953474 1489.03333645484 0.0
  endloop
endfacet
facet normal 5.595043040145548e-14 1.0 0.0
  outer loop
    vertex 965.8456361953474 1489.03333645484 0.9999999999999999
    vertex 972.296984418698 1489.0333364548399 0.0
    vertex 965.8456361953474 1489.03333645484 0.0
  endloop
endfacet
facet normal 5.595043040145548e-14 1.0 0.0
  outer loop
    vertex 972.296984418698 1489.0333364548399 0.0
    vertex 965.8456361953474 1489.03333645484 0.9999999999999999
    vertex 972.296984418698 1489.0333364548399 0.9999999999999999
  endloop
endfacet
facet normal -0.0 1.0 0.0
  outer loop
    vertex 972.296984418698 1489.0333364548399 0.9999999999999999
    vertex 973.296984418698 1489.0333364548399 0.0
    vertex 972.296984418698 1489.0333364548399 0.0
  endloop
endfacet
facet normal -0.0 1.0 0.0
  outer loop
    vertex 973.296984418698 1489.0333364548399 0.0
    vertex 972.296984418698 1489.0333364548399 0.9999999999999999
    vertex 973.296984418698 1489.0333364548399 0.9999999999999999
  endloop
endfacet
facet normal 1.0 0.0 0.0
  outer loop
    vertex 973.296984418698 1489.0333364548399 0.0
    vertex 973.296984418698 1482.1781846593892 0.9999999999999999
    vertex 973.296984418698 1482.1781846593892 0.0
  endloop
endfacet
facet normal 1.0 0.0 0.0
  outer loop
    vertex 973.296984418698 1482.1781846593892 0.9999999999999999
    vertex 973.296984418698 1489.0333364548399 0.0
    vertex 973.296984418698 1489.0333364548399 0.9999999999999999
  endloop
endfacet
facet normal 1.0 0.0 0.0
  outer loop
    vertex 973.296984418698 1482.1781846593892 0.0
    vertex 973.296984418698 1481.1781846593892 0.9999999999999999
    vertex 973.296984418698 1481.1781846593892 0.0
  endloop
endfacet
facet normal 1.0 0.0 0.0
  outer loop
    vertex 973.296984418698 1481.1781846593892 0.9999999999999999
    vertex 973.296984418698 1482.1781846593892 0.0
    vertex 973.296984418698 1482.1781846593892 0.9999999999999999
  endloop
endfacet
facet normal -0.0 -1.0 -0.0
  outer loop
    vertex 973.296984418698 1481.1781846593892 0.9999999999999999
    vertex 966.8456361953474 1481.1781846593892 0.0
    vertex 973.296984418698 1481.1781846593892 0.0
  endloop
endfacet
facet normal -0.0 -1.0 -0.0
  outer loop
    vertex 966.8456361953474 1481.1781846593892 0.0
    vertex 973.296984418698 1481.1781846593892 0.9999999999999999
    vertex 966.8456361953474 1481.1781846593892 0.9999999999999999
  endloop
endfacet
facet normal -0.0 -1.0 -0.0
  outer loop
    vertex 966.8456361953474 1481.1781846593892 0.9999999999999999
    vertex 965.8456361953474 1481.1781846593892 0.0
    vertex 966.8456361953474 1481.1781846593892 0.0
  endloop
endfacet
facet normal -0.0 -1.0 -0.0
  outer loop
    vertex 965.8456361953474 1481.1781846593892 0.0
    vertex 966.8456361953474 1481.1781846593892 0.9999999999999999
    vertex 965.8456361953474 1481.1781846593892 0.9999999999999999
  endloop
endfacet
facet normal -0.0 1.0 -0.0
  outer loop
    vertex 966.8456361953474 1482.1781846593892 0.9999999999999999
    vertex 972.2969844186973 1482.1781846593892 0.0
    vertex 966.8456361953474 1482.1781846593892 0.0
  endloop
endfacet
facet normal -0.0 1.0 -0.0
  outer loop
    vertex 972.2969844186973 1482.1781846593892 0.0
    vertex 966.8456361953474 1482.1781846593892 0.9999999999999999
    vertex 972.2969844186973 1482.1781846593892 0.9999999999999999
  endloop
endfacet
facet normal -1.0 1.232950817932972e-13 0.0
  outer loop
    vertex 972.296984418698 1488.0333364548399 0.9999999999999999
    vertex 972.2969844186973 1482.1781846593892 0.0
    vertex 972.2969844186973 1482.1781846593892 0.9999999999999999
  endloop
endfacet
facet normal -1.0 1.232950817932972e-13 0.0
  outer loop
    vertex 972.2969844186973 1482.1781846593892 0.0
    vertex 972.296984418698 1488.0333364548399 0.9999999999999999
    vertex 972.296984418698 1488.0333364548399 0.0
  endloop
endfacet
facet normal 1.0 -0.0 -0.0
  outer loop
    vertex 966.8456361953474 1488.0333364548403 0.0
    vertex 966.8456361953474 1482.1781846593892 0.9999999999999999
    vertex 966.8456361953474 1482.1781846593892 0.0
  endloop
endfacet
facet normal 1.0 -0.0 -0.0
  outer loop
    vertex 966.8456361953474 1482.1781846593892 0.9999999999999999
    vertex 966.8456361953474 1488.0333364548403 0.0
    vertex 966.8456361953474 1488.0333364548403 0.9999999999999999
  endloop
endfacet
facet normal -6.62140254075113e-14 -1.0 0.0
  outer loop
    vertex 972.296984418698 1488.0333364548399 0.9999999999999999
    vertex 966.8456361953474 1488.0333364548403 0.0
    vertex 972.296984418698 1488.0333364548399 0.0
  endloop
endfacet
facet normal -6.62140254075113e-14 -1.0 0.0
  outer loop
    vertex 966.8456361953474 1488.0333364548403 0.0
    vertex 972.296984418698 1488.0333364548399 0.9999999999999999
    vertex 966.8456361953474 1488.0333364548403 0.9999999999999999
  endloop
endfacet
facet normal 0.0 0.0 -1.0
  outer loop
    vertex 972.296984418698 1488.0333364548399 4.999999999999999
    vertex 966.8456361953474 1482.1781846593892 4.999999999999999
    vertex 966.8456361953474 1488.0333364548403 4.999999999999999
  endloop
endfacet
facet normal 0.0 0.0 -1.0
  outer loop
    vertex 966.8456361953474 1482.1781846593892 4.999999999999999
    vertex 972.296984418698 1488.0333364548399 4.999999999999999
    vertex 972.2969844186973 1482.1781846593892 4.999999999999999
  endloop
endfacet
facet normal -1.0 1.232950817932972e-13 -0.0
  outer loop
    vertex 972.296984418698 1488.0333364548399 4.999999999999999
    vertex 972.2969844186973 1482.1781846593892 0.9999999999999999
    vertex 972.2969844186973 1482.1781846593892 4.999999999999999
  endloop
endfacet
facet normal -1.0 1.232950817932972e-13 -0.0
  outer loop
    vertex 972.2969844186973 1482.1781846593892 0.9999999999999999
    vertex 972.296984418698 1488.0333364548399 4.999999999999999
    vertex 972.296984418698 1488.0333364548399 0.9999999999999999
  endloop
endfacet
facet normal 0.0 1.0 0.0
  outer loop
    vertex 966.8456361953474 1482.1781846593892 4.999999999999999
    vertex 972.2969844186973 1482.1781846593892 0.9999999999999999
    vertex 966.8456361953474 1482.1781846593892 0.9999999999999999
  endloop
endfacet
facet normal 0.0 1.0 0.0
  outer loop
    vertex 972.2969844186973 1482.1781846593892 0.9999999999999999
    vertex 966.8456361953474 1482.1781846593892 4.999999999999999
    vertex 972.2969844186973 1482.1781846593892 4.999999999999999
  endloop
endfacet
facet normal 1.0 -0.0 -0.0
  outer loop
    vertex 966.8456361953474 1488.0333364548403 0.9999999999999999
    vertex 966.8456361953474 1482.1781846593892 4.999999999999999
    vertex 966.8456361953474 1482.1781846593892 0.9999999999999999
  endloop
endfacet
facet normal 1.0 -0.0 -0.0
  outer loop
    vertex 966.8456361953474 1482.1781846593892 4.999999999999999
    vertex 966.8456361953474 1488.0333364548403 0.9999999999999999
    vertex 966.8456361953474 1488.0333364548403 4.999999999999999
  endloop
endfacet
facet normal -6.62140254075113e-14 -1.0 -0.0
  outer loop
    vertex 972.296984418698 1488.0333364548399 4.999999999999999
    vertex 966.8456361953474 1488.0333364548403 0.9999999999999999
    vertex 972.296984418698 1488.0333364548399 0.9999999999999999
  endloop
endfacet
facet normal -6.62140254075113e-14 -1.0 -0.0
  outer loop
    vertex 966.8456361953474 1488.0333364548403 0.9999999999999999
    vertex 972.296984418698 1488.0333364548399 4.999999999999999
    vertex 966.8456361953474 1488.0333364548403 4.999999999999999
  endloop
endfacet
endsolid button ok ir
